<?xml version="1.0" encoding="UTF-8" standalone="no"?>
<!-- Created with Inkscape (http://www.inkscape.org/) -->

<svg
   inkscape:version="1.2.2 (b0a8486541, 2022-12-01)"
   sodipodi:docname="brand.svg"
   viewBox="0 0 614.40002 614.40002"
   height="614.40002"
   width="614.40002"
   id="svg78"
   version="1.1"
   xmlns:inkscape="http://www.inkscape.org/namespaces/inkscape"
   xmlns:sodipodi="http://sodipodi.sourceforge.net/DTD/sodipodi-0.dtd"
   xmlns="http://www.w3.org/2000/svg"
   xmlns:svg="http://www.w3.org/2000/svg">
  <defs
     id="defs82">
    <inkscape:path-effect
       effect="skeletal"
       id="path-effect1188"
       is_visible="true"
       lpeversion="1"
       pattern="M 0,0 H 1"
       copytype="single_stretched"
       prop_scale="1"
       scale_y_rel="false"
       spacing="0"
       normal_offset="0"
       tang_offset="0"
       prop_units="false"
       vertical_pattern="false"
       hide_knot="false"
       fuse_tolerance="0" />
    <inkscape:path-effect
       effect="rough_hatches"
       id="path-effect990"
       is_visible="true"
       lpeversion="1.2"
       direction="324.60099,294.70055 , 101.15921,0"
       dist_rdm="0;1"
       growth="0"
       do_bend="true"
       bender="324.60099,299.70055 , 5,0"
       bottom_edge_variation="28.46;1"
       top_edge_variation="48.664862;1"
       bottom_tgt_variation="0;1"
       top_tgt_variation="0;1"
       scale_bf="1"
       scale_bb="1"
       scale_tf="1"
       scale_tb="1"
       top_smth_variation="0;1"
       bottom_smth_variation="0;1"
       fat_output="true"
       stroke_width_top="1"
       stroke_width_bottom="1"
       front_thickness="1"
       back_thickness="0.25" />
    <inkscape:perspective
       sodipodi:type="inkscape:persp3d"
       inkscape:vp_x="0 : 307.20001 : 1"
       inkscape:vp_y="0 : 1000 : 0"
       inkscape:vp_z="614.40002 : 307.20001 : 1"
       inkscape:persp3d-origin="307.20001 : 204.80001 : 1"
       id="perspective326" />
  </defs>
  <sodipodi:namedview
     id="namedview80"
     pagecolor="#505050"
     bordercolor="#eeeeee"
     borderopacity="1"
     inkscape:showpageshadow="0"
     inkscape:pageopacity="0"
     inkscape:pagecheckerboard="0"
     inkscape:deskcolor="#505050"
     showgrid="false"
     inkscape:zoom="0.70710678"
     inkscape:cx="282.13561"
     inkscape:cy="345.77522"
     inkscape:window-width="1366"
     inkscape:window-height="715"
     inkscape:window-x="0"
     inkscape:window-y="0"
     inkscape:window-maximized="1"
     inkscape:current-layer="g84" />
  <g
     inkscape:groupmode="layer"
     inkscape:label="Image"
     id="g84">
    <g
       id="g1635"
       transform="translate(-39.029498,-10.992394)">
      <circle
         style="fill:#ff7624;fill-opacity:1;stroke:none"
         id="path843"
         cx="345.36948"
         cy="317.96799"
         r="305" />
      <path
         style="fill:#000a40;stroke:#000a40;stroke-width:1.2;stroke-opacity:1"
         d="m 460.13012,542.33798 c -35.37473,-6.35046 -78.33906,-40.44882 -118.04597,-93.68642 -13.98942,-18.7565 -13.78332,-18.33388 -9.94321,-20.38905 2.87712,-1.53979 3.25433,-1.44247 5.04846,1.30251 11.67144,17.857 35.47862,46.16497 52.48825,62.41123 26.94862,25.73918 48.81743,38.69739 72.24214,42.80657 11.21901,1.96803 18.84199,1.25068 33.68553,-3.16991 10.96393,-3.2652 16.99851,-8.45563 20.7297,-17.82993 2.36529,-5.94259 2.71458,-9.01573 2.75132,-24.20673 0.0232,-9.57 -0.66029,-21.18 -1.51873,-25.8 l -1.56082,-8.4 -8.03918,-2.45905 c -7.20254,-2.20314 -8.00527,-2.7574 -7.71331,-5.32587 0.45986,-4.04555 0.73957,-4.13609 7.13971,-2.31115 3.15394,0.89931 6.22705,1.48461 6.82916,1.30068 0.60212,-0.18395 2.60012,0.28909 4.43999,1.0512 2.74636,1.13757 3.56611,2.49188 4.57899,7.56491 2.75917,13.81935 3.66859,22.40922 3.67722,34.73265 0.0152,21.81876 -5.10657,35.37813 -16.32556,43.21976 -9.88964,6.91246 -36.32741,11.72634 -50.46369,9.1886 z m 10.3983,-99.12663 c -1.65,-0.3101 -5.86393,-1.36835 -9.36429,-2.35167 -5.75815,-1.61758 -6.27807,-2.04004 -5.45898,-4.43565 0.49791,-1.45628 0.93185,-3.82447 0.96428,-5.26265 0.0448,-1.98367 2.52108,-4.07066 10.25899,-8.64606 21.19434,-12.53209 35.22863,-17.66446 45.58245,-16.66959 l 5.9237,0.56919 -2.36743,-3.32475 c -8.89399,-12.49046 -19.83476,-13.55343 -32.55502,-3.16294 -5.44519,4.44789 -15.58411,16.33165 -18.73046,21.95388 -1.02364,1.82915 -1.34375,1.8222 -4.26614,-0.0926 l -3.15946,-2.07015 4.91009,-6.99982 c 10.55251,-15.04364 27.0683,-27.51073 36.46227,-27.52385 7.08551,-0.01 12.56179,2.45765 18.39087,8.28672 3.18608,3.1861 6.50082,7.50201 7.36607,9.59089 1.38997,3.3557 1.32665,3.97828 -0.54381,5.34598 -1.72118,1.25856 -1.86422,2.0203 -0.76506,4.0741 2.09043,3.90601 1.63646,5.08389 -1.9594,5.08389 -2.01174,0 -3.8996,-0.94193 -4.81018,-2.4 -1.96782,-3.15098 -8.4734,-3.16701 -17.55279,-0.0432 -7.83478,2.69556 -32.5216,15.26945 -34.3833,17.51266 -1.81326,2.18484 13.23856,4.62615 23.84398,3.86733 10.80824,-0.77331 19.64301,-5.43193 24.87565,-13.11703 3.34725,-4.91604 3.94036,-5.28558 6.9,-4.29903 4.0451,1.34836 4.03164,1.84118 -0.2075,7.59927 -9.21725,12.51996 -17.23837,16.44673 -34.35453,16.8184 -6.6,0.14331 -13.35,0.007 -15,-0.30324 z M 249.32283,427.91529 c -22.38088,-13.30623 -22.7236,-13.57279 -34.47753,-26.81722 -6.52956,-7.35758 -12.63435,-13.8149 -13.5662,-14.34962 -3.9948,-2.2923 -5.86607,-23.06543 -3.00584,-33.36825 1.83028,-6.59289 9.81909,-14.36142 16.67578,-16.21597 7.17728,-1.94128 17.98227,-0.71197 25.9982,2.95783 8.14665,3.72966 17.88738,13.5268 22.90187,23.03449 l 3.89246,7.38033 -3.54084,1.23434 c -3.42485,1.19391 -3.6294,1.05042 -6.24446,-4.38032 -8.57918,-17.81657 -29.27053,-28.28921 -43.4767,-22.00515 -8.06943,3.56949 -10.8291,10.01843 -10.11438,23.6357 l 0.51773,9.86396 13.05516,14.84542 13.05517,14.84541 23.21711,13.64585 c 22.2383,13.07055 23.14746,13.75075 21.56489,16.13423 -0.90873,1.36861 -2.14601,2.60323 -2.74953,2.74358 -0.60351,0.14037 -11.26982,-5.79271 -23.70289,-13.18461 z m 211.15964,-47.24116 c -3.85957,-7.46359 2.6681,-13.71013 19.13678,-18.31261 17.0043,-4.75216 30.63016,-12.37543 28.52123,-15.95681 -5.14884,-8.74374 -15.82648,-23.03709 -20.78885,-27.82847 -20.54591,-19.83794 -30.70262,-40.07906 -32.32641,-64.42261 -0.76016,-11.396 -1.33982,-13.80293 -5.2101,-21.63392 -2.39513,-4.84622 -7.18294,-12.57606 -10.63956,-17.1774 -6.26422,-8.33871 -28.1032,-30.56607 -30.03199,-30.56607 -0.55833,0 -1.01515,1.14976 -1.01515,2.55505 0,2.42916 -0.39912,2.51775 -8.1,1.79801 -36.00914,-3.3655 -77.14629,-4.41477 -111.83773,-3.20029 -18.69697,0.65454 -35.52167,1.96664 -48.66227,3.92805 l -9.6,1.43293 11.23033,1.50761 c 14.10882,1.89404 34.02324,8.04041 40.551,12.51562 7.43316,5.09591 10.39146,12.07527 9.83011,23.19163 -0.40142,7.94944 -1.146,10.22371 -7.40283,22.61161 -6.747,13.3584 -6.95516,14.05762 -6.91131,23.2165 0.0248,5.1938 0.56829,11.22559 1.2076,13.40398 0.63931,2.17838 8.48225,18.20706 17.42874,35.61927 8.9465,17.41222 16.26636,32.14822 16.26636,32.74668 0,0.59847 -1.32192,1.69042 -2.93759,2.42657 -2.90521,1.32371 -3.12461,0.97207 -19.90765,-31.90739 -19.40449,-38.01509 -21.66363,-44.88812 -19.34795,-58.86284 0.717,-4.32692 2.77108,-10.5932 4.56461,-13.92506 8.45016,-15.69788 9.15618,-17.5659 9.66617,-25.57533 0.42182,-6.62464 0.0784,-8.77434 -1.90418,-11.91741 -3.51307,-5.56958 -7.00142,-7.4236 -22.6819,-12.05523 -12.14297,-3.58673 -15.8444,-4.16116 -27.25151,-4.22918 -9.02427,-0.0538 -15.66749,0.586 -21,2.02248 -9.48914,2.5562 -23.29496,9.62187 -26.32355,13.47209 -1.22202,1.55356 -2.74526,2.82465 -3.38495,2.82465 -1.81114,0 -11.26074,10.59222 -17.00164,19.0574 -5.46934,8.06477 -12.757,22.87696 -16.44235,33.41909 -1.20678,3.45208 -2.88061,6.53992 -3.71962,6.86188 -0.839,0.32196 -6.17133,-0.85494 -11.8496,-2.61532 l -10.32413,-3.2007 0.77175,-5.81778 c 2.11351,-15.93239 10.28846,-41.62368 19.22793,-60.42731 14.77438,-31.07701 33.34908,-51.24751 57.23782,-62.15526 14.00599,-6.39522 19.62595,-7.34239 42.40834,-7.14741 52.13215,0.44621 106.75692,14.18757 140.13078,35.25121 5.11033,3.22533 5.58701,3.88558 4.40278,6.09834 -0.73041,1.36477 -1.14925,2.62992 -0.93078,2.81142 0.21847,0.18151 5.36699,0.66758 11.44113,1.08016 10.35314,0.70322 11.15596,0.59016 12.83537,-1.80752 1.77474,-2.5338 1.85884,-2.49928 9.01601,3.70108 16.73244,14.49556 33.35015,35.33646 39.79103,49.90344 1.86618,4.22061 2.91751,9.77499 3.56303,18.82394 1.64709,23.08966 8.56752,37.84238 26.83893,57.2143 6.66144,7.06267 15.53674,18.05312 19.72287,24.42323 6.50264,9.89518 7.49528,12.10945 6.8157,15.2036 -1.58707,7.22586 -13.14055,14.29962 -32.53493,19.91988 -11.46722,3.32308 -16.09192,5.70759 -16.09192,8.29706 0,0.90166 -1.01034,2.88711 -2.2452,4.4121 l -2.2452,2.77269 z M 145.21854,258.54662 c 8.91829,-21.28653 16.0165,-31.22669 39.60795,-55.466 17.39256,-17.8702 69.87083,-26.92246 145.30193,-25.06391 16.83,0.41467 35.19,1.0626 40.8,1.43984 9.59597,0.64529 10.05787,0.56878 7.8,-1.29206 -4.52414,-3.72859 -28.79934,-14.91537 -41.57944,-19.16111 -24.86659,-8.26105 -50.75481,-12.90363 -84.10696,-15.08299 -23.20149,-1.51608 -33.6921,-0.46026 -47.18046,4.74845 -32.61018,12.59287 -57.47735,47.5135 -71.42943,100.3074 -4.4936,17.00354 -4.4745,17.94307 0.39628,19.49718 2.145,0.68441 4.34499,1.1542 4.88886,1.04398 0.54388,-0.11016 3.01945,-5.04707 5.50127,-10.97078 z m 254.62385,52.16986 c -4.88732,-0.61177 -9.02463,-1.25359 -9.19403,-1.42627 -0.16941,-0.17268 -0.0487,-1.66397 0.2682,-3.31397 l 0.57621,-3 h 21.81783 c 20.19474,0 22.21799,-0.19993 27.19694,-2.68754 l 5.37912,-2.68755 2.42088,2.44061 2.42088,2.44062 -2.96092,2.24891 c -7.44978,5.65832 -29.01785,8.35188 -47.92511,5.98519 z m -42.83206,-26.48363 c -2.26905,-2.52009 -2.2501,-2.56235 3.3621,-7.4955 7.85892,-6.90803 24.28894,-17.02333 35.405,-21.79744 18.83015,-8.08712 35.76809,-9.44194 50.25922,-4.02012 6.09337,2.27982 6.32049,2.51946 5.04361,5.32188 -1.56925,3.44415 -2.21854,3.51282 -9.35184,0.98927 -7.82821,-2.76941 -22.63477,-2.40403 -33,0.81433 -14.06187,4.36616 -30.98787,13.77098 -44.51809,24.73622 l -4.91809,3.98574 z m 29.51809,-117.3564 C 350.8693,130.42213 306.05571,104.19843 268.47123,97.792624 c -12.40337,-2.114 -25.7611,-2.3145 -36.63652,-0.54992 -8.08303,1.3115 -9.64577,0.69156 -9.68792,-3.84328 -0.0416,-4.483517 29.31258,-6.149867 48.71918,-2.76565 37.04264,6.4597 78.3323,30.248896 116.76362,67.273786 15.07169,14.52014 15.68386,15.29625 13.7504,17.43269 -1.11295,1.22979 -2.61484,2.17471 -3.33756,2.09982 -0.7227,-0.0749 -5.90401,-4.82851 -11.51401,-10.56362 z m 23.68515,-7.60021 c -0.36591,-8.00793 -1.64084,-17.33431 -3.13389,-22.92502 -3.08837,-11.56443 -11.28284,-28.89402 -18.3044,-38.709936 -5.46869,-7.64508 -15.44686,-19.328555 -15.44686,-18.086799 0,0.393877 1.62943,3.479669 3.62096,6.857312 8.46686,14.359803 25.31463,46.878273 28.77251,55.534773 4.1745,10.45052 4.53837,17.91941 0.90653,18.60768 -1.55905,0.29545 -2.1,-0.39748 -2.1,-2.69003 0,-1.69838 -0.45452,-3.08798 -1.01005,-3.08798 -0.55553,0 -1.69505,-2.295 -2.53226,-5.1 -1.77708,-5.95396 -16.56773,-35.08973 -32.13397,-63.300003 -6.52089,-11.817642 -11.24986,-21.856058 -11.73009,-24.899998 -0.44253,-2.805 -0.44467,-5.1 -0.005,-5.1 1.75633,0 18.77371,14.807637 25.81294,22.461051 21.62161,23.50818 33.22495,50.1701 34.48502,79.23895 l 0.63721,14.7 h -3.61101 -3.61101 l -0.61686,-13.5 z"
         id="path1149"
         class="UnoptimicedTransforms"
         sodipodi:nodetypes="sssssssssscssssssssssssssscsssscsssssssssssssssssssssssscsssscccsssssssssssssssscssssssssssssscssssssssscsssssssssssssssssscssssssssssscsssscsscccsssssssssscsssscssssscssssssssssssssccccc" />
    </g>
  </g>
</svg>
